<?xml version="1.0" encoding="utf-8"?>
<!-- Generator: Adobe Illustrator 19.0.0, SVG Export Plug-In . SVG Version: 6.00 Build 0)  -->
<svg version="1.1" id="Capa_1" xmlns="http://www.w3.org/2000/svg" xmlns:xlink="http://www.w3.org/1999/xlink" x="0px" y="0px"
	 viewBox="-145 363 500 500" style="enable-background:new -145 363 500 500;" xml:space="preserve">
<style type="text/css">
	.st0{display:none;}
	.st1{display:inline;fill:#FFF6E3;}
	.st2{display:inline;}
	.st3{fill:#D62BCE;}
	.st4{clip-path:url(#SVGID_2_);fill:#FFFFFF;}
	.st5{clip-path:url(#SVGID_4_);fill:#FFFFFF;}
	.st6{fill:#303030;}
	.st7{fill:#FF3E7E;}
	.st8{fill:#FFFFFF;}
	.st9{fill:#76C1F4;}
	.st10{display:inline;fill:#1D1D1B;}
	.st11{font-family:'ArialMT';}
	.st12{font-size:87.9127px;}
	.st13{font-size:36.2678px;}
	.st14{opacity:0.52;fill:#FFFFFF;enable-background:new    ;}
	.st15{fill:#202020;}
	.st16{fill:#1D1D1B;}
	.st17{fill:#1D1D1D;}
	.st18{display:none;fill:#1D1D1B;enable-background:new    ;}
	.st19{font-size:63.7887px;}
	.st20{display:inline;fill:#F7F252;}
	.st21{display:inline;fill:#76C1F4;}
	.st22{display:inline;fill:none;}
	.st23{display:inline;fill:#FFFFFF;}
	.st24{font-size:31.8737px;}
	.st25{font-size:15.2994px;}
	.st26{display:inline;fill:#FF3E7E;}
	.st27{display:inline;fill:#303030;}
	.st28{font-size:38.2484px;}
	.st29{font-size:22.949px;}
	.st30{font-size:30.5987px;}
	.st31{fill:#F7F252;}
</style>
<g id="BACKGROUND" class="st0">
	<rect id="XMLID_28_" x="-145" y="363" class="st1" width="500" height="500"/>
</g>
<g id="OBJECTS">
	<g id="XMLID_40_" class="st0">
		<g id="XMLID_690_" class="st2">
			<path id="XMLID_910_" class="st3" d="M225.8,808.3c-34.7,34.2-74.7,62.7-121.6,84.3c-2.4,1.1-4.9,2.2-7.6,2
				c-2.3-0.2-4.3-1.3-6.3-2.5C19.5,851.9-46.5,801.4-95.8,735.2c-34.5-46.3-67.5-102.1-64.3-162C-156.4,502.6-87,455-19,470.3
				c55.4,12.4,98.4,60,116.9,113.6c8-22.2,17.4-50.5,33.2-68c31-34.3,79.5-53.1,125-44.9c45.5,8.2,85.5,44.9,94.1,90.4
				c8.3,43.6-10.9,87.5-33,126C291.1,732.7,261.2,773.4,225.8,808.3z"/>
			<g id="XMLID_906_">
				<g>
					<defs>
						<path id="SVGID_1_" d="M225.8,808.3c-34.7,34.2-74.7,62.7-121.6,84.3c-2.4,1.1-4.9,2.2-7.6,2c-2.3-0.2-4.3-1.3-6.3-2.5
							C19.5,851.9-46.5,801.4-95.8,735.2c-34.5-46.3-67.5-102.1-64.3-162C-156.4,502.6-87,455-19,470.3
							c55.4,12.4,98.4,60,116.9,113.6c8-22.2,17.4-50.5,33.2-68c31-34.3,79.5-53.1,125-44.9c45.5,8.2,85.5,44.9,94.1,90.4
							c8.3,43.6-10.9,87.5-33,126C291.1,732.7,261.2,773.4,225.8,808.3z"/>
					</defs>
					<clipPath id="SVGID_2_">
						<use xlink:href="#SVGID_1_"  style="overflow:visible;"/>
					</clipPath>
					<path id="XMLID_101_" class="st4" d="M74.2,594c-17.6-20.3-104.1,6.7-103.2,8.8c-10.8-27.5,1.5-57.8-39.9-55.7
						c-42.4,2.2-81.1,22.1-114.3,47.5c-3.7,2.8-7.2,5.6-10.6,8.4c5.3,32.5,21.8,66.1,36.5,90.9c15,25.3,33.5,47.8,54.7,67.6
						c21.6-13.2,38.8-36.5,63.2-44.1c5.3-1.7,10.8-2.8,16.5-3.5c22.9-3.1,47.6-0.5,70.5-7.8c7.9-2.5,15.8-5.6,21.9-11.2
						C89.7,676.4,92.8,615.4,74.2,594z"/>
				</g>
				<g>
					<defs>
						<path id="SVGID_3_" d="M225.8,808.3c-34.7,34.2-74.7,62.7-121.6,84.3c-2.4,1.1-4.9,2.2-7.6,2c-2.3-0.2-4.3-1.3-6.3-2.5
							C19.5,851.9-46.5,801.4-95.8,735.2c-34.5-46.3-67.5-102.1-64.3-162C-156.4,502.6-87,455-19,470.3
							c55.4,12.4,98.4,60,116.9,113.6c8-22.2,17.4-50.5,33.2-68c31-34.3,79.5-53.1,125-44.9c45.5,8.2,85.5,44.9,94.1,90.4
							c8.3,43.6-10.9,87.5-33,126C291.1,732.7,261.2,773.4,225.8,808.3z"/>
					</defs>
					<clipPath id="SVGID_4_">
						<use xlink:href="#SVGID_3_"  style="overflow:visible;"/>
					</clipPath>
					<path id="XMLID_78_" class="st5" d="M280.1,779.8c2.1-0.1,4.3-0.5,6.1-1.6c1.8-1.1,3-2.9,4.2-4.7
						c11.9-17.2,24.5-33.5,32.9-52.5c0.7-1.5,1.3-3,2-4.3c1.2-2.4,2.4-4.6,3.9-6.7c5.8-11.7,11.4-23.5,16.4-35.4
						c-13.8-14.1-33-38.3-34.8-42.7c-9.7-24.6-9-58.9-12.8-85.1c-2.2-14.8-2.2-63.5-21.3-30.6c-9.7,16.7-13.4,36-20.9,53.6
						c-4,9.4-44,11.8-55.1,14.4c-7.2,1.7-15.8,4.7-17.1,12c-0.7,3.8,0.8,8.1-1.4,11.2c-1.4,1.9-3.9,2.7-6.2,3.3
						c-7,2-14.1,3.9-21.1,5.9c-5.6,1.6-11.7,3.5-14.9,8.4c-1.7,2.6-2.3,5.6-2.8,8.7c-2.7,19,4.1,57.2,25.1,65.5
						c9.4,3.7,19.7-3.5,29.5-2.2c14.9,2.1,25.4,18.6,34.7,28.9c12,13.3,21.8,28.4,31.9,43.2C263.2,775.9,271.7,780.1,280.1,779.8z"
						/>
				</g>
			</g>
			<path id="XMLID_882_" class="st6" d="M49.8,617.4c5.7,3.9,12.3,6.2,19.1,7.3c3.5,0.6,7.4,1.3,11,1c5-0.4,4.2,0.5,5-4
				c1.8-10.1-5.4-25.2-13.8-30.6c-9.4-6.1-21.9-5.6-32.7-4.8C20.7,587.8,43.3,613.1,49.8,617.4z"/>
			<g id="XMLID_833_">
				<g>
					<path class="st6" d="M201,597.2c-1.6,6-3.2,11.9-4.8,17.9c-0.5,1.8,4.2,1.2,4.7-0.5c1.6-6,3.2-11.9,4.8-17.9
						C206.2,594.8,201.5,595.5,201,597.2L201,597.2z"/>
				</g>
			</g>
			<g id="XMLID_782_">
				<g>
					<path class="st7" d="M132.3,675.8c20.9-2.6,40-13,53.3-29.4c0.5-0.6-1.8-0.4-2.1,0.1c-12.7,15.7-30.7,25.8-50.7,28.3
						C131.7,674.9,130.6,676,132.3,675.8L132.3,675.8z"/>
				</g>
			</g>
			<g id="XMLID_48_">
				<g>
					<path class="st7" d="M45.3,710.2C23.3,694,5.2,673.4-8,649.5c-0.5-0.9-2.7,0-2.2,1c13.3,24,31.5,44.7,53.6,61
						C44.3,712.2,46.3,711,45.3,710.2L45.3,710.2z"/>
				</g>
			</g>
			<g id="XMLID_768_">
				<g>
					<path class="st6" d="M-58.6,590c2.9,10,5,20.2,6.5,30.5c0.3,2.1,5,1,4.7-1.3c-1.4-10.3-3.6-20.5-6.5-30.5
						C-54.5,586.6-59.2,587.8-58.6,590L-58.6,590z"/>
				</g>
			</g>
			<g id="XMLID_761_">
				<g>
					<path class="st7" d="M-107.2,567c11.9,2.3,18,13.6,21.7,24.1c4.8,13.3,7.8,27.4,10.7,41.3c2.9,14.3,5.2,28.6,7.1,43.1
						c1.6,12.3,8.2,40.7-11,43.2c-1.1,0.1-2,1.5-0.3,1.3c11.7-1.5,16.2-12.7,16-23.3c-0.3-18.3-4.2-37.3-7.5-55.3
						c-3.2-17.3-6.8-35.1-12.8-51.6c-3.9-10.7-10.3-21.6-22.3-23.9C-106.5,565.6-108.5,566.8-107.2,567L-107.2,567z"/>
				</g>
			</g>
			<g id="XMLID_64_">
				<g id="XMLID_754_">
					<g>
						<path class="st8" d="M165.6,639.6c0.1-0.8,0.2-1.7,0.3-2.5l0,0c-2.8-1.9-6.8,1.1-9.3,2.3c-6.2,3.1-12.1,6.7-17.6,10.9
							c-12.9,9.7-23.4,22.1-31.1,36.4c0,0.1,0.4,0,0.5-0.1c5.8-10.7,13.1-20.4,22-28.7c4.5-4.2,9.4-8.1,14.6-11.5
							c2.2-1.4,4.4-2.8,6.7-4.1c0.4-0.2,14.1-8.2,13.5-2.4C165.2,639.7,165.6,639.7,165.6,639.6L165.6,639.6z"/>
					</g>
				</g>
				<g id="XMLID_747_">
					<g>
						<path class="st8" d="M155.4,636.2c-17.5,8.3-34.1,18.4-49.5,30.1c-0.2,0.2,0.3,0.2,0.4,0.1c15.4-11.6,31.9-21.6,49.3-29.9
							C155.9,636.2,155.6,636.1,155.4,636.2L155.4,636.2z"/>
					</g>
				</g>
				<g id="XMLID_740_">
					<g>
						<path class="st8" d="M162.3,637.6c1.7-5.9-18.4-2.1-21.1-1.8c-13.1,1.5-25.9,4.5-38.3,8.7c-0.7,0.2-0.5,1,0.2,0.7
							c9-3.1,18.1-5.5,27.5-7.2c4.7-0.8,9.3-1.5,14-1.9c1.3-0.1,17.4-1.7,16.5,1.5C160.9,638.2,162.1,638.1,162.3,637.6L162.3,637.6
							z"/>
					</g>
				</g>
				<g id="XMLID_733_">
					<g>
						<path class="st8" d="M160.7,645.7c-29.8,9.1-43.2,39.1-46.7,67.9c0,0.3,0.4,0.2,0.5,0c3.4-28.5,16.7-58.4,46.3-67.5
							C161.1,646,161,645.6,160.7,645.7L160.7,645.7z"/>
					</g>
				</g>
				<g id="XMLID_726_">
					<g>
						<path class="st8" d="M201.9,590.8c-19.2-9.8-39.1-18.2-59.5-25.3c-0.2-0.1-0.5,0.2-0.3,0.3c20.4,7,40.2,15.4,59.4,25.2
							C201.7,591.1,202.1,590.9,201.9,590.8L201.9,590.8z"/>
					</g>
				</g>
				<g id="XMLID_719_">
					<g>
						<path class="st8" d="M199.8,589.9c-10.8-10.5-20.9-21.7-30.1-33.6c-0.1-0.2-0.6,0-0.4,0.2c9.3,11.9,19.3,23.1,30.2,33.6
							C199.6,590.4,200,590.1,199.8,589.9L199.8,589.9z"/>
					</g>
				</g>
				<g id="XMLID_712_">
					<g>
						<path class="st8" d="M178,525.9c4.8,21.2,11.5,41.9,20,61.9c0.1,0.2,0.6,0.1,0.5-0.1c-8.5-20-15.2-40.7-20-61.9
							C178.4,525.6,178,525.7,178,525.9L178,525.9z"/>
					</g>
				</g>
			</g>
			<g id="XMLID_705_">
				<g>
					<path class="st9" d="M95.1,408.3c0.4,15.4,0.8,30.8,1.2,46.2c0,0.4,2.2,0.1,2.2-0.6c-0.4-15.4-0.8-30.8-1.2-46.2
						C97.2,407.3,95.1,407.6,95.1,408.3L95.1,408.3z"/>
				</g>
			</g>
			<g id="XMLID_698_">
				<g>
					<path class="st9" d="M47.9,433.7c9.9,13,19.1,26.4,27.6,40.3c0.4,0.6,2.4-0.2,2.2-0.6c-8.6-14-17.8-27.5-27.7-40.5
						C49.6,432.5,47.6,433.2,47.9,433.7L47.9,433.7z"/>
				</g>
			</g>
			<g id="XMLID_691_">
				<g>
					<path class="st9" d="M145.9,423.2c-7.3,14.2-14.7,28.4-22,42.6c-0.2,0.4,1.8,0.2,2.1-0.4c7.3-14.2,14.7-28.4,22-42.6
						C148.3,422.4,146.2,422.6,145.9,423.2L145.9,423.2z"/>
				</g>
			</g>
			<g id="XMLID_72_">
				<g>
					<path class="st7" d="M139.8,624.3c2.3,0.1,4.6,0.1,6.9,0.2c0.6,0,1.7-0.2,2-0.8c0.3-0.6-0.3-0.7-0.8-0.7
						c-2.3-0.1-4.6-0.1-6.9-0.2c-0.6,0-1.7,0.2-2,0.8C138.8,624.2,139.3,624.3,139.8,624.3L139.8,624.3z"/>
				</g>
			</g>
		</g>
		<text transform="matrix(1 0 0 1 7.3505 804.671)" class="st10 st11 st12">PETS</text>
		<text transform="matrix(1 0 0 1 57.6856 840.9435)" class="st10 st11 st13">Chile</text>
	</g>
	<g id="XMLID_2_">
		<path id="XMLID_114_" class="st7" d="M-31.6,782.9h274.6c54.5-41.4,89.6-106.9,89.6-180.6c0-125.3-101.6-227-227-227
			s-227,101.6-227,227C-121.2,676-86,741.4-31.6,782.9z"/>
		<g id="XMLID_46_">
			<path id="XMLID_604_" class="st9" d="M142.4,554.1c0.6,2.7,1.2,5.5,0.9,8.3c-0.3,2.6-1.4,5.2-3.4,6.8c-0.2,0.1-0.3,0.2-0.5,0.3
				c-7,4.5-18.6,4.6-26.6,5.8c-10.3,1.6-20.6,3.6-30.8,5.7c-20.1,4.1-40,8.7-60.3,11.7c-12.5,1.8-43.5,12.2-48-2.9
				c-4-13.4,5.6-28.9,13.6-38.8c10.9-13.7,27.6-21.8,44.6-24.9c9.4-1.7,19-2.4,28.6-2.1c14.4,0.5,29.1-1.2,42.9-5.6
				c10-3.2,24.9-11.6,31.5,0.9C140.3,530.1,139.9,542.6,142.4,554.1z"/>
			<path id="XMLID_173_" class="st14" d="M134.1,574.8c-3.7-7.7-11.9-13.1-21.5-13.1c-12.4,0-22.5,9-23.5,20.5
				C103.9,580.7,119.1,577.7,134.1,574.8z"/>
			<g id="XMLID_268_">
				<g>
					<g>
						<path class="st15" d="M50.1,585c0,0-1.2,0.4-0.1-0.9c0.1-0.2,0.3-0.3,0.5-0.6c0.2-0.2,0.3-0.5,0.6-0.8
							c0.2-0.3,0.4-0.7,0.6-1.1c0.1-0.2,0.1-0.5,0.2-0.7c0.1-0.3,0.1-0.5,0.2-0.8c0.1-1.2-0.1-2.7-0.9-4.4c-0.8-1.7-2.3-3.6-4.6-5.1
							c-2.2-1.5-5.2-2.2-8.5-1.9c-3.3,0.2-6.7,1.3-10.2,2.7c-6.9,2.7-13.3,7.1-19.4,10.6c-6.1,3.6-11.9,6.2-16.4,7.1
							c-0.6,0.1-1.1,0.2-1.6,0.3c-0.5,0.1-1,0.1-1.4,0.2c-0.9,0.1-1.7,0.2-2.3,0.1c-1.2,0-2,0-2,0s0.7,0,1.9-0.1
							c0.6,0,1.4-0.1,2.3-0.3c0.4-0.1,0.9-0.1,1.4-0.2c0.5-0.1,1-0.3,1.5-0.4c4.4-1.1,9.9-4,15.7-7.9c5.8-3.8,12.1-8.6,19.2-11.7
							c3.5-1.6,7.2-2.8,10.9-3.2c3.7-0.4,7.5,0.3,10.4,2.2c5.5,3.8,7.1,9.1,6.3,12.4c-0.1,0.4-0.2,0.8-0.3,1.2
							c-0.2,0.4-0.3,0.7-0.4,1c-0.4,0.5-0.7,1.1-1,1.4c-0.4,0.3-0.7,0.6-0.9,0.9c-0.3,0.2-0.5,0.3-0.8,0.4
							C49.3,586.1,50.1,585,50.1,585z"/>
					</g>
				</g>
			</g>
			<g id="XMLID_259_">
				<g>
					<path class="st16" d="M-1.1,563.5c8.9-5.3,19.5-2.7,24.9,6.1c-0.1-0.2,0.1-0.7,0-1c-5.4-8.8-16-11.4-24.9-6.1
						C-1.2,562.6-1,563.4-1.1,563.5L-1.1,563.5z"/>
				</g>
			</g>
			<g id="XMLID_250_">
				<g>
					<path class="st16" d="M104.5,562c0.8,2.2,1.5,4.4,2.3,6.5c0.3,1,1.9,0.5,1.5-0.4c-0.8-2.2-1.5-4.4-2.3-6.5
						C105.7,560.6,104.2,561,104.5,562L104.5,562z"/>
				</g>
			</g>
			<path id="XMLID_5_" class="st9" d="M75.5,530.5c-1-10.9-1.4-21.9-1.3-32.9c1.7-1.2,3.7,0.8,5,2.7c5.3,7.6,10.7,15.2,15.1,23.7
				c-6.2,2.8-12.3,5.6-18.5,8.4"/>
			<path id="XMLID_128_" class="st9" d="M115,489.9c-0.8-0.5-1.6-0.9-2.5-1.2c-0.7,11.7-1.4,23.3-1.7,34.9c0.1-0.3,0.2-0.7,0.2-1
				c7.6,1.3,15.4,0.5,22.8-2c-0.9-6.7-4.3-13-7.8-18.4C122.9,497.4,119.4,492.6,115,489.9z"/>
			<g id="XMLID_39_">
				<g>
					<g>
						<path class="st15" d="M83.9,576.4c0,0,0.5,0.6-0.5,0.7c-0.5,0-1.4-0.1-2.9-0.5c-1.5-0.5-3.6-1.3-6.4-3.1
							c-2.7-1.8-5.7-4.9-7.3-8.8c-1.6-3.9-1.9-8.3-1-12c0.5-1.8,1.2-3.6,2.4-4.8c1.2-1.2,2.7-1.7,3.9-1.7c0.3,0,0.6,0,0.9,0
							c0.3,0.1,0.5,0.1,0.8,0.1c0.5,0.1,0.9,0.2,1.2,0.3c0.6,0.2,1,0.3,1,0.3s-0.4-0.1-1-0.2c-0.3-0.1-0.7-0.2-1.2-0.2
							c-0.2,0-0.5,0-0.7-0.1c-0.3,0-0.5,0.1-0.8,0.1c-1.1,0.2-2.4,0.7-3.2,1.9c-0.9,1.1-1.4,2.7-1.7,4.4c-0.5,3.4,0.2,7.4,1.8,10.6
							c1.6,3.3,4.2,5.7,6.7,7.4c2.4,1.7,4.3,2.6,5.6,3.3c1.3,0.7,2,1.1,2.4,1.4C84.6,576.2,83.9,576.4,83.9,576.4z"/>
					</g>
				</g>
			</g>
			<path id="XMLID_8_" class="st14" d="M109.8,555.7c0.3,1.1-7,2.8-7.9,2.7c-0.5-0.1-1-0.1-1.3-0.4c-0.3-0.2-0.5-0.5-0.7-0.8
				c-1.1-2-1.1-4.3-1-6.6c0.1-2.4,1-4.1,3.9-4.1C107.7,546.5,109,552.1,109.8,555.7z"/>
			<g id="XMLID_269_">
				<g>
					<path class="st16" d="M102.1,560.3c2-0.4,3.9-0.9,5.9-1.3c1.4-0.3,0.8-2.5-0.6-2.2c-2,0.4-3.9,0.9-5.9,1.3
						C100.1,558.4,100.7,560.6,102.1,560.3L102.1,560.3z"/>
				</g>
			</g>
			<g id="XMLID_6_">
				<g>
					<g>
						<path class="st17" d="M97.4,544.4c0.3,0.2-0.3,2-2.2,4.5c-1,1.2-2.3,2.6-4,3.8c-1.8,1.2-4,2.2-6.5,2.5c-2.5,0.3-5-0.2-7-1.3
							c-1-0.6-1.9-1.3-2.5-2.2c-0.6-0.9-1-1.8-1.1-2.6c-0.3-1.6-0.2-2.9-0.1-3.8c0.2-0.9,0.3-1.3,0.5-1.3c0.2,0,0.4,0.5,0.6,1.3
							c0.2,0.8,0.4,2,0.9,3.2c0.5,1.2,1.4,2.3,2.9,3c1.5,0.7,3.4,1,5.4,0.8c4.1-0.5,7.3-2.9,9.4-4.8C95.8,545.6,97,544.2,97.4,544.4
							z"/>
					</g>
				</g>
			</g>
			<g id="XMLID_10_">
				<g>
					<g>
						<path class="st17" d="M129.2,532.5c0.3,0.1,0.1,2.1-1.4,4.8c-0.7,1.4-1.8,3-3.3,4.4c-1.5,1.5-3.6,2.8-6,3.5
							c-2.4,0.7-5,0.7-7.2-0.1c-1.1-0.4-2.1-1-2.8-1.8c-0.8-0.8-1.2-1.6-1.6-2.4c-0.6-1.6-0.7-2.8-0.7-3.7c0-0.9,0.1-1.4,0.3-1.4
							c0.2,0,0.5,0.4,0.8,1.2c0.3,0.8,0.7,1.9,1.4,3c0.7,1.1,1.7,2.1,3.4,2.5c1.6,0.5,3.6,0.4,5.5-0.1c4-1.1,6.7-4.1,8.5-6.3
							C127.8,533.9,128.8,532.3,129.2,532.5z"/>
					</g>
				</g>
			</g>
		</g>
		<text id="XMLID_21_" transform="matrix(1 0 0 1 -39.6621 853.8291)" class="st18 st11 st19">PETS CHILE</text>
		<g id="XMLID_12_">
			<path id="XMLID_18_" class="st16" d="M-50.6,616.5c-1.5-3.3-5.3-7.6-5.9-10.9c-1.7-8.5,0.2-17.4,3.5-25.4
				c3.3-8,7.9-15.5,11.9-23.2c1.1-2.1,2.1-4.3,2-6.6c-0.1-2.1-1.2-4.1-2.5-5.7c-4.8-5.8-12.9-7.9-20.3-7.1
				c-3.9,0.4-7.9,1.7-10.9,4.2c-3.3,2.8-5.3,6.9-6.6,11c-7.1,22.9,6.2,44.3,16.4,63.9c1.7-2.8,2.3-6.1,1.9-9.4
				c1.7,3.1,3.4,6.2,5.1,9.3c0.6-1,1.3-2.2,2.5-2.6c1.1-0.4,2.8,0.4,2.6,1.6"/>
			<path id="XMLID_533_" class="st16" d="M127.8,706.1c-7.9,27-3.8,57.8,10.8,81.3c5.9-23,17.5-44.2,33.2-61
				c-12.3-9.2-26.5-15.5-41.2-18.2c-1.6-0.3-3.8-0.3-4.3,1.4"/>
			<path id="XMLID_531_" class="st16" d="M158.6,465.4c1.8-4.6,6.2-22-4.3-18c-4.9,1.9-9.9,7.3-12.8,11.6
				c-4.1,6.1-6.5,13.2-8.4,20.4c-2.7,9.9-3.1,20,3.6,28.4c0.8,1.1,2.3,2.1,3.4,1.3c0.4-0.3,0.7-0.8,0.9-1.3
				c2.8-6.8,1.5-12.7,5.5-19.1C151.2,481.2,155.3,473.5,158.6,465.4z"/>
			<path id="XMLID_512_" class="st16" d="M199.3,468.3c-2.4-7.7-23.6,0.4-27.7,2.3c-4.7,2.1-9,4.9-13,8.2c-1,0.9-9.6,10.7-9.7,10.7
				c0.4,0.1,0.9,0.3,1.3,0.4l0.9-1.1c9.7,0,19.4-1.8,28.5-5.3c5-1.9,18.7-6.2,19.6-12.4C199.6,470,199.6,469.1,199.3,468.3z"/>
			<g id="XMLID_96_">
				<path class="st8" d="M315.8,520.2c-0.3-5-1-10-1.7-14.9c-1.7-12.1,0.2-19.2-12.9-19.8c-13.1-0.6-26.3,0.1-39.4,0.1
					c-25.5-0.1-51.1-0.9-76.6-0.9c-15-0.3-29.4-2.1-42.7,6c-16,9.8-10.5,25.5-6.9,41.4c0.7,2.9,6.6,34.9,5.2,35.1
					c-33.3,4.8-66.6,9.6-99.7,15.7c-23.5,4.3-47.1,8.7-70.4,13.4c-9.1,1.8-31.4,1.8-36.1,10.9c-4.8,9.2,1.4,36.5,3.3,46.6
					c6.4,38.9,9.9,76,21.2,114.5c1.6,5.3,3.1,10.6,4.7,16c0.7-0.1,1.4-0.2,2.1-0.2c0.5-3.3,1.5-6.6,2.6-9.8
					c10.1-30,17.3-61.9,22.9-92.9c12.1,21.7,25,43.2,41.3,62c14.6,16.8,32.2,31.4,52.3,40.7c0.1-0.1,0.2-0.2,0.2-0.3
					c0.4-0.4,0.8-0.7,1.2-1c-11.2-12.4-17.9-29.1-25-43.8c-2.8-5.9-2-13,1.2-18.7c16.4-29.8,65.1-8.5,88.9,0.4
					c29.9,11.2,57.7,28.4,81.4,49.6c5.9,5.3,12.1,11.1,20,12c-8.6-19.8-17.3-39.7-25.9-59.5c-4.3-9.8-8.6-19.9-9.1-30.5
					c-1.2-24.1,12.3-54.9,21.7-76.6c6.3-14.5,10.7-33.4,24.2-42.5c13.4-9,28.5-15.5,44.2-19c1.4-0.3,2.8-0.6,3.8-1.6
					c0.8-0.9,1.2-2.1,1.5-3.3C315.5,539.8,316.4,529.9,315.8,520.2z"/>
			</g>
			<g id="XMLID_210_">
				<g>
					<path class="st16" d="M290.7,534.8c-3.8,9.2-11.2,24.2-23.5,17.8c-12.3-6.4-16.7-25.2-13.8-37.4c0.2-0.7-0.2-1.5,0-2.3
						c-2.5,10.7-1.1,22,4.3,31.6c3.3,5.9,9,12.6,16.5,11.7c9.2-1.1,13.5-11.9,16.6-19.3C291,536.4,290.5,535.4,290.7,534.8
						L290.7,534.8z"/>
				</g>
			</g>
			<g id="XMLID_150_">
				<path class="st16" d="M291.4,504.5c7.6,2.6,15.4,3.4,23,2.8c-0.1-0.7-0.2-1.3-0.3-2c-1.7-12.1,0.2-19.2-12.9-19.8
					c-11.3-0.5-22.8-0.1-34.2,0.1C271.4,494.5,281.9,501.2,291.4,504.5z"/>
			</g>
			<g id="XMLID_115_">
				<path class="st16" d="M62.5,720.1c3-5.4,7.1-9.2,11.9-11.6c-13.7-1.7-26.4-4.3-37.1-7.2C21.6,697.2,5.8,690.8-8.3,682
					c12,21.4,24.7,42.6,40.8,61.1c14.6,16.8,32.2,31.4,52.3,40.7c0.1-0.1,0.2-0.2,0.2-0.3c0.4-0.4,0.8-0.7,1.2-1
					c-11.2-12.4-17.9-29.1-25-43.8C58.5,733,59.4,725.8,62.5,720.1z"/>
			</g>
			<g id="XMLID_4_">
				<g>
					<path class="st16" d="M151.6,512.7c3.9,4,7.9,7.9,11.8,11.9c1.4,1.4,3.7-0.3,2.1-1.9c-3.9-4-7.9-7.9-11.8-11.9
						C152.3,509.4,150.1,511.2,151.6,512.7L151.6,512.7z"/>
				</g>
			</g>
			<g id="XMLID_7_">
				<g>
					<path class="st16" d="M170.8,502.4c3.9,4,7.9,7.9,11.8,11.9c1.4,1.4,3.7-0.3,2.1-1.9c-3.9-4-7.9-7.9-11.8-11.9
						C171.5,499.1,169.3,500.8,170.8,502.4L170.8,502.4z"/>
				</g>
			</g>
		</g>
		<g id="XMLID_59_" class="st0">
			<path id="XMLID_22_" class="st20" d="M222.2,465.4c-0.1-3.6-0.2-7.2-0.2-10.8c0-0.6,0-1.3,0.3-1.8c0.5-1,1.9-1.3,2.9-1.9
				c2.1-1.3,2.4-4.1,2.6-6.5c0.3-4.4,0.6-8.9-1.2-12.9c-0.2-0.5,4.7-1.7,5-1.7c-3-1.7-10-3.8-13-1.4c-4.2,3.4-2.5,13.4-1.7,17.8
				C218.1,452.7,220.1,459.1,222.2,465.4z"/>
			<g id="XMLID_23_" class="st2">
				<g>
					<g>
						<path class="st15" d="M216.9,435.4c0,0-0.3,0,0.1-0.2c0.2-0.1,0.6-0.2,1.3-0.3c0.4,0,0.8-0.1,1.4,0c0.6,0.1,1.2,0.2,1.9,0.7
							c1.4,0.9,2.3,2.7,2.6,4.6c0.3,1.9,0.1,3.9-0.2,5.6c-0.3,1.7-0.8,3.2-1.2,4.2c-0.4,1-0.8,1.6-0.8,1.6s0.4-0.6,0.7-1.6
							c0.4-1,0.8-2.5,1-4.3c0.2-1.7,0.3-3.6-0.1-5.4c-0.3-1.8-1.2-3.4-2.3-4.1c-1.2-0.7-2.2-0.7-2.9-0.7c-0.7,0-1.1,0.1-1.3,0.1
							C216.6,435.5,216.9,435.4,216.9,435.4z"/>
					</g>
				</g>
			</g>
			<g id="XMLID_9_" class="st2">
				<g>
					<path class="st16" d="M221.5,428.8c0,0.5,0,1,0,1.4c0,0.6,0.9,0.6,0.9,0c0-0.5,0-1,0-1.4C222.4,428.2,221.5,428.2,221.5,428.8
						L221.5,428.8z"/>
				</g>
			</g>
		</g>
	</g>
	<g id="XMLID_193_" class="st0">
		<g id="XMLID_53_" class="st2">
			<path id="XMLID_483_" class="st9" d="M-12.6,558.2c4.1-2.6,7.5-6.4,9.7-11.9c2.6-6.6-2.1-11.5-0.8-17.3
				c1.6-7.3,11.1-6.5,15.1-1.2c2.9,4,3.5,9.1,3.7,13.9c0.9,29.4-38.1,28.8-58.1,30.3c-14.4,1.1-28.8,1.6-43.3,1.1
				c-12.3-0.4-25.4-3.7-31.6-15.4c-4.8-9.1-4.8-19.9-3.5-29.9c2.9-21.4,11.6-41.4,18.5-61.7c2.4-7,4.6-14,6.2-21.2
				c0.9-3.9,0.7-15.1,3.9-17.8c1.6-1.4,3.7-1.7,5.8-2c8.3-1,24-2.4,31.5,2.3c6.9,4.4,5.8,19.7,8.6,27.7c5.7,16.1,11.4,32.1,17,48.2
				c5.6,15.8,19.6,57.3-7.6,62.3C-29.1,564.1-19.8,562.9-12.6,558.2z"/>
			<path id="XMLID_420_" class="st9" d="M-93.3,438.3c-1.2-9-1.3-18-1.2-27.1c0-3.8,0.9-12.3,5.4-5.3c3.3,5.1,6.3,10.3,9.2,15.7
				c0.8,1.5,1.6,3.1,1.3,4.8c-5.4,2.6-10.6,5.5-15.6,8.7"/>
			<path id="XMLID_422_" class="st9" d="M-52.5,437.5c0.9-9.1,0.6-18,0.2-27.1c-0.2-3.8-1.4-12.3-5.6-5.1c-3.1,5.2-5.9,10.6-8.6,16
				c-0.7,1.5-1.5,3.2-1.2,4.9c5.5,2.4,10.8,5.1,15.9,8.1"/>
		</g>
		<g id="XMLID_169_" class="st2">
			<ellipse id="XMLID_501_" class="st7" cx="-73.5" cy="533.5" rx="40.3" ry="40.3"/>
		</g>
		<g id="XMLID_52_" class="st2">
			<g id="XMLID_116_">
				<g id="XMLID_187_">
					<path id="XMLID_191_" class="st8" d="M-89.3,432.2c4.8-0.7,9.3,2.9,10.2,7.5c0.1,0.6,2,0.1,1.8-0.5c-1.1-5.4-6.5-8.7-11.8-7.9
						C-89.8,431.4-90.5,432.4-89.3,432.2L-89.3,432.2z"/>
				</g>
			</g>
			<g id="XMLID_271_">
				<g id="XMLID_181_">
					<path id="XMLID_185_" class="st8" d="M-57.3,430.7c-5.6-0.6-11.3,3-12.2,8.7c-0.1,0.6,1.7,0.3,1.8-0.3c0.7-4.4,4.6-8,9.2-7.5
						C-57.9,431.7-56.3,430.8-57.3,430.7L-57.3,430.7z"/>
				</g>
			</g>
		</g>
		<g id="XMLID_42_" class="st2">
			<g id="XMLID_19_">
				<g id="XMLID_174_">
					<path id="XMLID_179_" class="st8" d="M-78.3,444.8c3-0.1,6-0.1,8.9-0.2c1,0,1.4-1.4,0.2-1.4c-3,0.1-6,0.1-8.9,0.2
						C-79.2,443.5-79.5,444.8-78.3,444.8L-78.3,444.8z"/>
				</g>
			</g>
			<g id="XMLID_106_">
				<g id="XMLID_166_">
					<path id="XMLID_171_" class="st8" d="M-74.7,444.8c0,2,0.1,4,0.1,6.1c0,0.9,1.9,0.5,1.9-0.2c0-2-0.1-4-0.1-6.1
						C-72.8,443.7-74.7,444-74.7,444.8L-74.7,444.8z"/>
				</g>
			</g>
		</g>
		<g id="XMLID_51_" class="st2">
			<g id="XMLID_288_">
				<g id="XMLID_160_">
					<path id="XMLID_164_" class="st8" d="M-84.1,460.9c4.8,2.2,9.5-3.9,10.9-7.9c0.2-0.5-0.7-0.5-0.9-0.1c-1.2,3.4-5.3,9.3-9.5,7.4
						C-83.9,460.1-84.6,460.6-84.1,460.9L-84.1,460.9z"/>
				</g>
			</g>
			<g id="XMLID_272_">
				<g id="XMLID_154_">
					<path id="XMLID_158_" class="st8" d="M-63.3,459.9c-4.1,2-8.5-3.8-9.8-7.1c-0.2-0.4-1.1-0.1-0.9,0.2c1.6,4,6.3,9.7,11.1,7.4
						C-62.3,460.1-62.8,459.7-63.3,459.9L-63.3,459.9z"/>
				</g>
			</g>
		</g>
		<g id="XMLID_60_" class="st2">
			<g id="XMLID_273_">
				<g id="XMLID_147_">
					<path id="XMLID_152_" class="st9" d="M-57.6,448.2c12.4-5.6,25.3-9.3,38.7-11.2c0.4-0.1,0.8-0.5,0.2-0.4
						c-13.7,1.9-26.8,5.8-39.4,11.4C-58.7,448.2-57.9,448.3-57.6,448.2L-57.6,448.2z"/>
				</g>
			</g>
			<g id="XMLID_279_">
				<g id="XMLID_141_">
					<path id="XMLID_145_" class="st9" d="M-56.9,449.7c16.2-1.5,32.3,0,47.9,4.4c0.3,0.1,1.1-0.4,0.5-0.6
						c-15.8-4.4-32-5.9-48.4-4.4C-57.3,449.2-57.6,449.8-56.9,449.7L-56.9,449.7z"/>
				</g>
			</g>
			<g id="XMLID_289_">
				<g id="XMLID_135_">
					<path id="XMLID_139_" class="st9" d="M-57.4,453c14.9,2,29.1,6.2,42.7,12.6c0.4,0.2,1.1-0.4,0.5-0.6
						c-13.6-6.5-28-10.7-42.9-12.7C-57.5,452.2-58,452.9-57.4,453L-57.4,453z"/>
				</g>
			</g>
		</g>
		<g id="XMLID_56_" class="st2">
			<g id="XMLID_335_">
				<g id="XMLID_129_">
					<path id="XMLID_133_" class="st9" d="M-88.8,448.4c-12.7-5.2-25.9-8.5-39.5-9.8c-0.2,0-1.1,0.4-0.6,0.4
						c13.6,1.4,26.7,4.7,39.4,9.8C-89.3,448.9-88.5,448.5-88.8,448.4L-88.8,448.4z"/>
				</g>
			</g>
			<g id="XMLID_316_">
				<g id="XMLID_122_">
					<path id="XMLID_126_" class="st9" d="M-90,449.7c-16.4-0.9-32.5,1.2-48.2,6.3c-0.5,0.2-0.4,0.7,0.1,0.5
						c15.5-5,31.5-7.1,47.7-6.2C-89.9,450.3-89.3,449.7-90,449.7L-90,449.7z"/>
				</g>
			</g>
			<g id="XMLID_299_">
				<g id="XMLID_97_">
					<path id="XMLID_102_" class="st9" d="M-89.8,452.9c-14.9,2.6-29,7.4-42.4,14.4c-0.6,0.3-0.1,0.8,0.4,0.5
						c13.3-6.9,27.4-11.7,42.2-14.3C-89,453.4-89.2,452.8-89.8,452.9L-89.8,452.9z"/>
				</g>
			</g>
		</g>
		<path id="XMLID_176_" class="st21" d="M-60.1,493.6c-1.4,0.4-2.6,1.1-3.4,2.1c-1,1.2-0.4,3.1,0.8,4.1c1.2,1,2.9,1.2,4.4,1.4
			c-1.4-0.5-2.9,0.7-3.3,2.1c-0.6,1.9,0.4,4.2,2.3,5c1.8,0.8,4.2,0.1,5.2-1.6c0.9,1,1.8,2,2.9,2.6c4.2,2.3,5.9-2.6,5.9-6
			C-45.1,495.3-53.3,491.6-60.1,493.6z"/>
		<path id="XMLID_514_" class="st21" d="M-87.3,493.6c1.4,0.4,2.6,1.1,3.4,2.1c1,1.2,0.4,3.1-0.8,4.1c-1.2,1-2.9,1.2-4.4,1.4
			c1.4-0.5,2.9,0.7,3.3,2.1c0.6,1.9-0.4,4.2-2.3,5c-1.8,0.8-4.2,0.1-5.2-1.6c-0.9,1-1.8,2-2.9,2.6c-4.2,2.3-5.9-2.6-5.9-6
			C-102.3,495.3-94.1,491.6-87.3,493.6z"/>
		<rect id="XMLID_13_" x="-105.6" y="513.3" class="st22" width="61.8" height="27.4"/>
		<text id="XMLID_24_" transform="matrix(1 0 0 1 -105.5849 535.9247)" class="st23 st11 st24">CAT</text>
		<rect id="XMLID_63_" x="-100.7" y="543.4" class="st22" width="57" height="12.4"/>
		<text id="XMLID_103_" transform="matrix(1 0 0 1 -100.7118 554.2919)" class="st23 st11 st25">LOVERS</text>
	</g>
	<g id="XMLID_43_" class="st0">
		<path id="XMLID_267_" class="st26" d="M295.5,678.4c4.8,5.3,10.9,9.5,17.5,12.2c2,0.8,4.6,1.4,6.1-0.2c0.8-0.8,1-2.1,1.1-3.2
			c1.2-11-2.3-22.4-9.5-30.7c-3.4-3.9-8.2-7.3-13.3-6.6c-5.4,0.8-8.6,7.7-11.5,11.7c-0.3,0.4-0.7,0.9-0.5,1.5
			c-3.3-1.4-6.7-3-10.4-3.5c-3.4-0.4-6.8-0.2-10.3-0.5c-4.8-0.3-8.9-0.3-13.7,1.2c-1.3,0.4-2.7,1.3-2.6,2.6
			c-4.1-7.1-11.3-16.1-20.1-10.3c-9.7,6.3-13.6,18.8-13.3,30.4c0.1,1.7,0.4,3.8,2,4.4c1,0.3,2,0,3-0.4c7-2.7,30.6-24.2,23.5-5.2
			c-4.2,11.3-7.6,22.9-11.9,34.2c-3.2,8.5-12.1,19.7-1.5,26.2c8.6,5.3,20.3,3.9,29.9,3.6c9.7-0.3,18.2-2.2,27.5-4.8
			c2.4-0.7,4.9-1.4,7.1-2.6c0.7-0.4,1.5-0.8,2.3-0.5c0.6,0.3,0.9,1,1.1,1.7c0.5,1.5,1,3,1.4,4.5c-1.2-3.9-0.4-10-0.7-14.2
			c-0.3-5.7-0.8-11.4-1.3-17.1C296.6,701.3,295.6,689.9,295.5,678.4z"/>
		<path id="XMLID_265_" class="st20" d="M278.6,744.3c3.9-0.1,7.6,0.1,11.4,0.6c2.9,0.4,7.6,0.8,9.8-1.5c2.3-2.4,1.7-7.9,0.8-10.8
			c-0.7-2.2-4.4-10.3-7.5-6.5c-0.7-5.6-4.2-10.7-7.9-14.9c-2.4-2.7-5.2-5.1-8.4-6.8c-8.5-4.4-19-2.9-27.6,1.3
			c-4.6,2.2-8.9,5.3-12.5,8.9c-3.1,3.1-3.9,6.5-6.2,10c-2.3-0.6-5.4-1.7-7.3,0.4c-0.7,0.8-1,1.8-1.2,2.8c-0.5,1.9-0.7,3.9-0.8,5.9
			c-0.1,2,0,4,0.7,5.8c2,5.3,7.3,7.2,12.5,6.7c7.1-0.8,14.3-0.8,21.5-1.1C263.3,744.8,271,744.6,278.6,744.3z"/>
		<g id="XMLID_49_" class="st2">
			<g id="XMLID_232_">
				<g id="XMLID_113_">
					<path id="XMLID_120_" class="st6" d="M257.3,673.6c-0.6,5.6-1.4,11.2-2.5,16.7c-0.4,1.9,3.6,1.4,3.9-0.3
						c1.1-5.5,1.9-11.1,2.5-16.7C261.5,671.3,257.5,671.9,257.3,673.6L257.3,673.6z"/>
				</g>
			</g>
			<g id="XMLID_203_">
				<g id="XMLID_105_">
					<path id="XMLID_111_" class="st6" d="M275.1,674.3c-0.7,5.7-1.4,11.4-2.1,17.1c-0.2,1.6,3.7,0.9,3.9-0.5
						c0.7-5.7,1.4-11.4,2.1-17.1C279.1,672.3,275.2,673,275.1,674.3L275.1,674.3z"/>
				</g>
			</g>
		</g>
		<g id="XMLID_11_" class="st2">
			<g id="XMLID_110_">
				<path id="XMLID_93_" class="st9" d="M201.9,782.5c-0.3,0.2-0.7,0.4-1,0.6c-9.3,4.9-25.9,3.2-31.2-7.2c-5-9.9-0.4-25.4,11.2-27.3
					c-2,0.4-4.2-0.4-5.8-1.7c-10.3-8-11.3-25,2.1-30.2c10.4-4.1,23.3,0.6,30.1,8.8c6.2,7.5,6.7,18.3,7.3,27.7
					C215.2,763.8,211.6,776.7,201.9,782.5z"/>
			</g>
			<g id="XMLID_83_">
				<path id="XMLID_91_" class="st9" d="M323.5,783.6c-31.1-9.2-23.8-62.5,6-68.2c8.2-1.6,16.2,0.8,19.8,9c4.6,10.5,1.9,27.2-7.9,34
					c5.8,3.1,11.2,11.3,8.6,18C346.3,785.6,331.2,785.9,323.5,783.6z"/>
			</g>
			<rect id="XMLID_20_" x="196.3" y="742.5" class="st9" width="122.9" height="19.2"/>
		</g>
		<rect id="XMLID_27_" x="213.7" y="774.6" class="st22" width="93.3" height="56.8"/>
		<text transform="matrix(1 0 0 1 222.1406 801.7206)" class="st27 st11 st28">DOG</text>
		<text transform="matrix(1 0 0 1 298.6758 801.7206)" class="st27 st11 st29"> </text>
		<text transform="matrix(1 0 0 1 221.6816 828.4941)" class="st27 st11 st30">FOOD</text>
		<g id="XMLID_45_" class="st2">
			<g id="XMLID_65_">
				<g id="XMLID_86_">
					<path id="XMLID_90_" class="st6" d="M288.2,735c0.9,0.2,1.7,0.6,2.4,1.2c0.7,0.5,1.8,0.2,2.5-0.1c0.3-0.1,1.7-0.8,1.1-1.3
						c-1.1-0.8-2.3-1.3-3.6-1.6c-0.9-0.2-2.1,0.2-2.7,0.7C287.3,734.4,287.5,734.9,288.2,735L288.2,735z"/>
				</g>
			</g>
			<path id="XMLID_82_" class="st31" d="M233.1,738.1c2-0.7,2.2-3.5,4.5-3.8c1.3-0.2,5.9,2.5,7.8,2.8c7.6,1.2,15.3,1.6,22.9,1
				c3.1-0.2,7-0.4,9.9-1.8c2.3-1.1,4.1-4.5,6.7-4.8c1.5-0.2,2.6,1.6,2.7,3.1c0.2,4.2-3.7,7.4-7.3,9.6c-8,4.9-14.4,7.5-23.8,7.7
				c-7.1,0.2-15.4-1.7-19-8.5c-1.1-2.2-1.9-4.7-3.9-6.1"/>
			<g id="XMLID_75_">
				<g id="XMLID_77_">
					<path id="XMLID_84_" class="st6" d="M229,736.4c1.2-1,2.5-2.1,3.7-3.1c-0.8-0.1-1.5-0.1-2.3-0.2c2.7,14.8,14.4,21.2,28.8,19.8
						c12.7-1.2,24.2-8.2,30.9-19.1c0.8-1.2-2-1.2-2.6-0.2c-11.8,19.2-49.2,27.7-54.4-1.2c-0.2-0.9-1.8-0.6-2.3-0.2
						c-1.2,1-2.5,2.1-3.7,3.1C225.8,736.5,228,737.3,229,736.4L229,736.4z"/>
				</g>
			</g>
		</g>
		<g id="XMLID_58_" class="st2">
			<g id="XMLID_69_">
				<path id="XMLID_74_" class="st6" d="M256.7,719.6c2.7,1.4,0.8,13,0.7,15.9c-0.2,5.5-0.4,11-0.5,16.5c0,0.3,1.9,0.1,1.9-0.5
					c0.2-6.3,0.4-12.6,0.6-18.8c0.1-2.9,2.1-12.2-0.9-13.6C258.1,718.7,256.5,719.5,256.7,719.6L256.7,719.6z"/>
			</g>
		</g>
		<g id="XMLID_44_" class="st2">
			<path id="XMLID_36_" class="st6" d="M258.9,725.7c10.4-0.4,25.2-14.4,16.9-23.1c-5.2-5.4-16.5-4.4-22.9-2.2
				c-13.6,4.7-8,18.4,1.1,24.1C255.4,725.4,257.1,725.8,258.9,725.7z"/>
			<path id="XMLID_34_" class="st9" d="M260.6,708.6c4.7-0.2,11.7-0.6,15.2-4.1c0.3-0.3,0.6-0.6,0.8-0.9c-0.2-0.3-0.5-0.6-0.8-0.9
				c-5.2-5.4-16.5-4.4-22.9-2.2c-4.2,1.4-6.5,3.7-7.5,6.3C249.8,708.9,255.9,708.8,260.6,708.6z"/>
		</g>
	</g>
</g>
<g id="DESIGNED_BY_FREEPIK" class="st0">
</g>
<g>
	<path d="M-16.3,821.7c0,6.7-3.6,12-10.4,13c-1.1,0.2-2.3,0.2-3.1,0.2h-11.5v15.5h-5.2v-42.1h16.7c0.8,0,2,0.1,3.1,0.2
		C-20,809.7-16.3,814.9-16.3,821.7z M-21.7,821.7c0-3.5-1.7-7.2-5.7-8.1c-0.9-0.2-1.9-0.3-2.6-0.3h-11.3V830H-30
		c0.7,0,1.8-0.1,2.6-0.2C-23.4,828.8-21.7,825.2-21.7,821.7z"/>
	<path d="M-5.3,813.3v13.2h17.9v4.9H-5.3v14.1h21.4v5h-26.6v-42.1h26.6v4.9H-5.3z"/>
	<path d="M53.5,813.3H39.2v37.2H34v-37.2H19.6v-4.9h33.9V813.3z"/>
	<path d="M82.8,820.8c-0.5-3.1-2.3-5.3-4.6-6.7c-1.6-1-4-1.6-6.2-1.6c-2.2-0.1-4.3,0.5-5.8,1.5c-1.6,1-3.2,2.7-3.2,5.1
		c0,1.1,0.4,2.5,1.3,3.4c1.3,1.2,3.2,1.9,5.7,2.7l7.5,2.1c3.3,0.9,6.5,2.2,8.4,4.1c2.2,2.2,2.7,4.4,2.7,7.7c0,3.6-1.7,6.7-4.4,8.8
		c-3.2,2.5-7,3.4-11.5,3.4c-5,0-9.8-1.5-13.3-5.3c-2-2.3-3.1-4.9-3.6-7.3l5.4-0.8c0.4,1.6,1.3,3.6,2.9,5.1c2.2,2.1,5.2,3.3,8.8,3.3
		c2.7,0,5.6-0.6,7.5-2c1.8-1.3,2.8-3.1,2.8-5.4c0-1.4-0.5-2.9-1.6-4c-1.3-1.3-3.2-1.9-5.4-2.5l-7.7-2.3c-3.2-0.9-6-1.6-8.1-3.7
		c-2.1-2-2.9-4.4-2.9-7.2c0-4,2-7.3,5.1-9.3c2.7-1.8,6.2-2.5,9.5-2.5c2.9,0,6.4,0.6,9,2.2c3.3,1.9,6.2,5,7.2,10.2L82.8,820.8z"/>
	<path d="M142,838c-0.8,3-2.2,5.7-4.7,8.2c-3.5,3.7-8.2,5.2-13.5,5.2c-6,0-11.3-2.2-14.7-6.8c-3.3-4.4-4.7-9.9-4.7-15.1
		c0.1-5.6,1.2-10.9,4.6-15.2c3.6-4.6,8.8-6.7,14.8-6.7c5.3,0,10.1,1.6,13.4,5.2c2.8,2.7,4.3,5.8,5.1,9.3l-5.3,0.8
		c-0.5-1.9-1.3-3.7-2.5-5.3c-2.6-3.4-6.2-4.9-10.5-5c-4.2-0.1-8.2,1.6-10.8,5c-2.6,3.3-3.4,7.7-3.4,12c0.1,4.3,0.6,8.4,3.4,12
		c2.5,3.4,6.4,4.9,10.8,5c4.3,0.1,8.1-1.7,10.5-5c1.1-1.4,1.8-3,2.3-4.7L142,838z"/>
	<path d="M180.9,808.4v42.1h-5.2v-18.6h-22.1v18.6h-5.2v-42.1h5.2v18.5h22.1v-18.5H180.9z"/>
	<path d="M194.9,808.4v42.1h-5.2v-42.1H194.9z"/>
	<path d="M209.4,808.4v37.1H229v5h-24.7v-42.1H209.4z"/>
	<path d="M239.1,813.3v13.2H257v4.9h-17.9v14.1h21.4v5h-26.6v-42.1h26.6v4.9H239.1z"/>
</g>
</svg>
